<svg width="228" height="241" viewBox="0 0 228 241" fill="none" xmlns="http://www.w3.org/2000/svg">
<path d="M227.501 59.2982L150.044 240.398L68.8943 236.411L0.716197 192.218L43.7109 0L227.501 59.2982ZM180.53 86.0487L123.292 67.5813L65.0399 48.7868L60.5531 72.2265L116.019 90.1222L119.135 91.1274L115.601 91.419L54.9809 96.4342L49.6444 119.039L101.257 135.876L128.92 144.899L117.669 173.705L89.3951 172.64L89.4026 172.617L89.1711 172.607L66.1781 158.212L70.543 139.485L70.46 139.459L47.2418 131.967L47.1601 131.941L38.8406 168.127L81.4536 197.257L81.4617 197.232L81.5386 197.284L132.807 198.724L161.438 130.782L108.42 113.676L108.29 113.634L108.438 113.619L170.98 107.855L180.53 86.0487Z" fill="#111827" fill-opacity="0.4"/>
</svg>
