<svg width="203" height="203" viewBox="0 0 203 203" fill="none" xmlns="http://www.w3.org/2000/svg">
<path fill-rule="evenodd" clip-rule="evenodd" d="M114.616 24.3495C107.261 16.9946 95.3358 16.9946 87.9814 24.3495L81.6573 30.6735L96.4206 45.4363C97.9763 45.0203 99.611 44.7985 101.298 44.7985C111.7 44.7985 120.132 53.2304 120.132 63.6318C120.132 65.3189 119.91 66.9542 119.494 68.51L138.796 87.811C140.351 87.3957 141.986 87.1735 143.673 87.1735C154.075 87.1735 162.507 95.6051 162.507 106.007C162.507 116.408 154.075 124.84 143.673 124.84C133.272 124.84 124.84 116.408 124.84 106.007C124.84 104.319 125.062 102.685 125.478 101.129L110.715 86.3655V132.068C116.344 135.325 120.132 141.411 120.132 148.382C120.132 158.783 111.7 167.215 101.298 167.215C90.8968 167.215 82.4651 158.783 82.4651 148.382C82.4651 141.411 86.2525 135.325 91.8818 132.068V79.9456C86.2525 76.6892 82.4651 70.6028 82.4651 63.6318C82.4651 61.9447 82.6874 60.3094 83.1026 58.7536L68.3401 43.9906L24.3495 87.9814C16.9946 95.3358 16.9946 107.261 24.3495 114.616L87.9814 178.248C95.3358 185.602 107.261 185.602 114.616 178.248L178.248 114.616C185.602 107.261 185.602 95.3358 178.248 87.9814L114.616 24.3495ZM74.6641 11.0323C89.3741 -3.67746 113.223 -3.67742 127.933 11.0324L191.565 74.6641C206.275 89.3741 206.275 113.223 191.565 127.933L127.933 191.565C113.223 206.275 89.3741 206.275 74.6641 191.565L11.0323 127.933C-3.67746 113.223 -3.67742 89.3741 11.0324 74.6641L74.6641 11.0323Z" fill="#111827" fill-opacity="0.4"/>
</svg>
