<svg width="188" height="214" viewBox="0 0 188 214" fill="none" xmlns="http://www.w3.org/2000/svg">
<path fill-rule="evenodd" clip-rule="evenodd" d="M166.032 194.007L187.056 3.94509L0.474609 0L13.4281 190.809L89.177 213.573L166.032 194.007ZM59.4044 63.5617L92.3682 64.2587L92.3682 64.2603L148.789 65.4533L149.368 60.2133L150.683 48.3942L151.374 42.1395L92.9418 40.904L92.9418 40.9025L34.3711 39.6641L34.7974 45.9423L39.1777 110.432L91.3686 111.536L91.3686 111.537L120.131 112.145L116.779 142.382L90.5841 148.861L90.5786 148.862L90.5566 148.867L64.6915 141.293L63.4223 122.629L39.9744 122.133L42.4711 158.878L90.0376 173.172L90.1457 173.145L90.1457 173.142L138.231 160.905L138.665 156.965L145.455 95.5874L146.158 89.3272L91.9422 88.1809L91.9422 88.1793L61.0335 87.5258L59.4044 63.5617Z" fill="#111827" fill-opacity="0.4"/>
</svg>
