<svg width="185" height="185" viewBox="0 0 185 185" fill="none" xmlns="http://www.w3.org/2000/svg">
<g clip-path="url(#clip0_3866_85)">
<path fill-rule="evenodd" clip-rule="evenodd" d="M141.784 170.497C125.643 170.497 115.209 162.802 110.121 152.738L124.274 144.54C128.001 150.627 132.839 155.096 141.414 155.096C148.61 155.096 153.208 151.495 153.208 146.528C153.208 139.054 143.236 136.133 136.197 133.118C123.654 127.781 115.329 121.074 115.329 106.912C115.329 93.8792 125.264 83.9456 140.794 83.9456C151.839 83.9456 159.794 87.7929 165.501 97.8477L151.968 106.542C148.99 101.205 145.762 99.0942 140.794 99.0942C135.698 99.0942 132.469 102.324 132.469 106.542C132.469 111.759 135.698 113.869 143.153 117.097C158.776 123.794 170.598 129.056 170.598 146.279C170.598 161.93 158.305 170.497 141.784 170.497ZM101.75 144.292C101.75 162.302 90.6591 171.821 75.2579 171.821C61.3459 171.821 53.0117 166.5 48.9139 157.25H48.7753H48.7104H48.6734L62.8166 147.363C65.5454 152.201 68.006 155.633 73.963 155.633C79.6795 155.633 83.25 152.738 83.25 144.052V83.25H101.75V144.292ZM0 185H185V0H0V185Z" fill="#111827" fill-opacity="0.4"/>
</g>
<defs>
<clipPath id="clip0_3866_85">
<rect width="185" height="185" fill="white"/>
</clipPath>
</defs>
</svg>
