<svg width="201" height="199" viewBox="0 0 201 199" fill="none" xmlns="http://www.w3.org/2000/svg">
<path d="M121.252 0.421521C118.465 -0.154528 115.537 -0.0491563 112.848 0.823431L28.1631 28.7153C22.6933 30.5207 18.5439 35.2218 17.3803 40.8529L1.06012 119.832C-0.119203 125.539 1.84282 131.424 6.14906 135.249L23.66 150.77C32.3084 157.476 35.7413 158.179 40.0947 159.078C54.377 162.03 64.3216 155.12 67.4036 140.205L84.2427 58.714C84.4943 57.4965 83.7146 56.2958 82.4926 56.0433L72.9456 54.0705C71.6473 53.8022 70.517 54.6082 70.2654 55.8258L53.4416 137.242C52.0578 143.939 43.7641 149.047 33.6847 141.172L15.3744 124.929C14.6893 124.39 14.4021 123.462 14.575 122.625L30.8798 43.7199C31.0685 42.8068 31.6872 42.1312 32.5453 41.8325L117.227 13.9555C118.009 13.641 118.929 13.8312 119.599 14.4456L186.296 73.6033C186.965 74.2177 187.265 75.0849 187.092 75.922L170.772 154.901C170.599 155.738 169.966 156.476 169.2 156.715L84.4249 184.666C83.6589 184.904 82.6618 184.698 82.0531 184.175L64.9453 168.661C64.4893 168.17 63.7537 167.942 63.1561 168.136C57.1045 170.06 56.0335 170.233 50.631 170.941C49.3304 171.069 47.2631 171.433 50.6416 174.353L72.8277 194.496C74.9887 196.371 77.5898 197.696 80.3394 198.265C83.1653 198.849 86.062 198.659 88.789 197.795L173.579 169.847C179.049 168.041 183.182 163.416 184.362 157.709L200.666 78.8044C201.846 73.0972 199.884 67.2126 195.577 63.387L128.809 4.12165C126.687 2.25479 124.04 0.997569 121.252 0.421521ZM129.026 65.5503C107.411 61.084 92.6218 67.5431 89.4769 82.7623C86.0647 99.2751 97.9419 106.483 118.292 112.83C142.61 120.394 143.763 124.452 142.756 129.322C141.027 137.693 133.501 139.869 117.539 136.571C97.4519 132.42 94.0584 126.475 94.6514 116.282C94.7188 115.186 93.9653 114.235 92.896 114.014L83.0358 111.976C81.8138 111.724 80.6963 112.534 80.4604 113.675C77.8344 126.383 81.6583 142.949 114.805 149.799C138.787 154.754 154.478 148.17 157.875 131.733C161.24 115.449 151.061 108.814 128.488 100.897C105.517 92.976 103.476 90.8876 104.609 85.4087C105.552 80.8429 108.86 75.2688 126.274 78.8671C141.778 82.0709 146.89 86.6072 147.103 97.5216C147.128 98.5582 147.805 99.4952 148.874 99.7162L158.734 101.754C159.345 101.88 159.935 101.687 160.487 101.326C160.948 101.024 161.306 100.458 161.371 99.757C163.555 81.4828 153.313 70.5691 129.026 65.5503Z" fill="#111827" fill-opacity="0.4"/>
</svg>
