<svg width="230" height="230" viewBox="0 0 230 230" fill="none" xmlns="http://www.w3.org/2000/svg">
<g clip-path="url(#clip0_4001_1073)">
<path d="M35.0235 62.8034C35.0235 62.8034 31.579 58.3859 38.0145 55.6468L53.3326 48.1321C53.3326 48.1321 57.8749 45.4262 60.6326 49.7065L148.322 167.797L136.523 209.005C136.523 209.005 134.616 215.461 126.604 212.394L35.0235 62.8034Z" fill="#111827" fill-opacity="0.4"/>
<path d="M56.3618 97.6541L19.8019 115.965C19.8019 115.965 16.1873 117.35 18.0173 122.198L27.9182 138.401C27.9182 138.401 30.1181 142.779 35.9617 140.188L73.3808 125.455L56.3618 97.6541Z" fill="#111827" fill-opacity="0.4"/>
<path d="M107.112 112.421L171.926 86.6488L183.317 45.5607C183.317 45.5607 183.611 35.9657 174.716 38.4568L85.4716 83.2172L107.112 112.421Z" fill="#111827" fill-opacity="0.4"/>
<path d="M126.587 212.449C128.757 216.521 132.792 216.546 132.792 216.546L180.06 207.786C186.401 205.654 186.954 200.913 186.954 200.913L222.183 77.8725C223.731 72.4647 218.79 69.0266 218.79 69.0266L187.936 41.2904C181.503 34.1527 174.718 38.4578 174.718 38.4578C174.718 38.4578 182.694 35.5449 183.319 45.5617L136.736 208.254C136.416 209.372 135.865 210.405 135.111 211.259C133.616 212.914 131.053 214.124 126.353 211.965L126.587 212.449Z" fill="#111827" fill-opacity="0.4"/>
</g>
<defs>
<clipPath id="clip0_4001_1073">
<rect width="185.882" height="185.882" fill="white" transform="translate(51.166) rotate(15.9776)"/>
</clipPath>
</defs>
</svg>
