<svg width="233" height="211" viewBox="0 0 233 211" fill="none" xmlns="http://www.w3.org/2000/svg">
<path d="M10.9393 210.558C11.5251 211.144 12.4749 211.144 13.0607 210.558L22.6066 201.012C23.1924 200.426 23.1924 199.476 22.6066 198.891C22.0208 198.305 21.0711 198.305 20.4853 198.891L12 207.376L3.51472 198.891C2.92893 198.305 1.97918 198.305 1.3934 198.891C0.807611 199.476 0.807611 200.426 1.3934 201.012L10.9393 210.558ZM13.5 209.497C13.5 121.398 33.2276 64.8389 70.0926 33.7078C106.944 2.58808 161.368 -3.49624 231.708 10.4719L232.292 7.52941C161.632 -6.50251 106.056 -0.588145 68.1571 31.4157C30.2722 63.408 10.5 121.097 10.5 209.497H13.5Z" fill="#F9E680"/>
</svg>
