<svg width="171" height="169" viewBox="0 0 171 169" fill="none" xmlns="http://www.w3.org/2000/svg">
<path fill-rule="evenodd" clip-rule="evenodd" d="M30 20.2201C11.6398 35.7187 0 58.7659 0 84.5C0 131.168 38.2797 169 85.5 169C89.9197 169 94.261 168.669 98.5 168.03V110H64C45.2223 110 30 94.7777 30 76V20.2201ZM128.5 157.552C146.672 147.082 160.583 130.178 167.038 110H128.5V157.552ZM170.881 80H128.5V66.5V51.5H98.5V66.5V80H64C61.7909 80 60 78.2091 60 76V3.82202C68.0536 1.33831 76.6187 0 85.5 0C131.193 0 168.514 35.424 170.881 80Z" fill="#F9FAFB"/>
</svg>
