<svg width="870" height="20" viewBox="0 0 870 20" fill="none" xmlns="http://www.w3.org/2000/svg">
  <path id="Union" fill-rule="evenodd" clip-rule="evenodd" d="M19.9506 11C19.4489 16.0533 15.1853 20 10 20C4.47715 20 0 15.5228 0 10C0 4.47715 4.47715 0 10 0C15.1853 0 19.4489 3.94668 19.9506 9H283.049C283.551 3.94668 287.815 0 293 0C298.185 0 302.449 3.94668 302.951 9H566.049C566.551 3.94668 570.815 0 576 0C581.185 0 585.449 3.94668 585.951 9H850.049C850.551 3.94668 854.815 0 860 0C865.523 0 870 4.47715 870 10C870 15.5228 865.523 20 860 20C854.815 20 850.551 16.0533 850.049 11H585.951C585.449 16.0533 581.185 20 576 20C570.815 20 566.551 16.0533 566.049 11H302.951C302.449 16.0533 298.185 20 293 20C287.815 20 283.551 16.0533 283.049 11H19.9506Z" fill="#6B7280"/>
  <mask id="mask0_3918_93" style="mask-type:alpha" maskUnits="userSpaceOnUse" x="0" y="0" width="870" height="20">
    <path id="Union" fill-rule="evenodd" clip-rule="evenodd" d="M19.9506 11C19.4489 16.0533 15.1853 20 10 20C4.47715 20 0 15.5228 0 10C0 4.47715 4.47715 0 10 0C15.1853 0 19.4489 3.94668 19.9506 9H283.049C283.551 3.94668 287.815 0 293 0C298.185 0 302.449 3.94668 302.951 9H566.049C566.551 3.94668 570.815 0 576 0C581.185 0 585.449 3.94668 585.951 9H850.049C850.551 3.94668 854.815 0 860 0C865.523 0 870 4.47715 870 10C870 15.5228 865.523 20 860 20C854.815 20 850.551 16.0533 850.049 11H585.951C585.449 16.0533 581.185 20 576 20C570.815 20 566.551 16.0533 566.049 11H302.951C302.449 16.0533 298.185 20 293 20C287.815 20 283.551 16.0533 283.049 11H19.9506Z" fill="#6B7280"/>
  </mask>
  <g mask="url(#mask0_3918_93)">
    <rect id="Rectangle 21" y="-21" width="100" height="63" fill="#585FFF"/>
  </g>
</svg>
